<?xml version="1.0" encoding="UTF-8"?>
<svg width="300px" height="99px" viewBox="0 0 300 99" version="1.1" xmlns="http://www.w3.org/2000/svg" xmlns:xlink="http://www.w3.org/1999/xlink">
    <!-- Generator: Sketch 42 (36781) - http://www.bohemiancoding.com/sketch -->
    <title>logo</title>
    <desc>Created with Sketch.</desc>
    <defs></defs>
    <g id="Page-1" stroke="none" stroke-width="1" fill="none" fill-rule="evenodd">
        <g id="logo">
            <path d="M102.271275,41.9574462 L97.0161049,22.4472337 L94.5615943,21.817872 L94.5615943,20.0871273 L103.372658,19.9297869 L103.372658,21.817872 L100.634935,22.4472337 L104.00202,36.702276 L109.194254,20.0871273 L112.183722,19.9297869 L117.281551,37.048425 L121.183594,22.4472337 L118.319998,21.817872 L118.319998,20.0871273 L126.816381,19.9297869 L126.816381,21.817872 L124.330402,22.4472337 L118.792019,41.9574462 L115.33053,41.9574462 L110.641786,24.0835741 L109.666275,27.6394677 L105.418083,41.9574462 L102.271275,41.9574462 Z M133.582019,17.727021 L133.582019,27.2303826 C135.36522,25.7199069 137.148393,24.9646805 138.931594,24.9646805 C140.714794,24.9646805 142.025951,25.4629202 142.865104,26.4594145 C143.704257,27.4559088 144.123828,28.8457353 144.123828,30.6289357 L144.123828,39.4399994 L146.483934,40.2267015 L146.483934,41.9574462 L138.931594,41.9574462 L138.931594,40.2267015 L140.977019,39.4714675 L140.977019,30.9436165 C140.977019,29.8107598 140.767234,28.9768639 140.347657,28.4419038 C139.928081,27.9069437 139.267258,27.6394677 138.365168,27.6394677 C137.924613,27.6394677 137.494553,27.6971586 137.074977,27.8125421 C136.6554,27.9279257 136.256808,28.0800199 135.879189,28.2688293 C135.50157,28.4576388 135.165914,28.6621793 134.872211,28.882457 C134.578507,29.1027347 134.337254,29.3177645 134.148445,29.5275527 L133.582019,30.1569144 L133.582019,39.4399994 L135.627445,40.2267015 L135.627445,41.9574462 L127.760424,41.9574462 L127.760424,40.2267015 L130.435211,39.4399994 L130.435211,20.2444678 L127.760424,19.6151061 L127.760424,17.8843614 L133.582019,17.727021 Z M152.777551,17.8843614 C154.141175,17.8843614 154.822976,18.6710557 154.822976,20.2444678 C154.822976,20.8948114 154.592213,21.3982958 154.130678,21.7549358 C153.669144,22.1115759 153.176149,22.2898933 152.651678,22.2898933 C152.08525,22.2898933 151.623723,22.095842 151.267083,21.7077337 C150.910443,21.3196254 150.732125,20.7794287 150.732125,20.0871273 C150.732125,19.394826 150.926177,18.8546293 151.314285,18.466521 C151.702393,18.0784127 152.190144,17.8843614 152.777551,17.8843614 Z M154.508295,25.2793613 L154.508295,39.4399994 L156.868402,40.2267015 L156.868402,41.9574462 L148.6867,41.9574462 L148.6867,40.2267015 L151.361487,39.4399994 L151.361487,27.7968081 L148.6867,27.1674464 L148.6867,25.4367017 L154.508295,25.2793613 Z M164.892763,20.8423614 L164.892763,25.4367017 L169.455636,25.4367017 L169.455636,27.7968081 L164.892763,27.7968081 L164.892763,37.8980632 C164.892763,39.1777717 165.417226,39.8176164 166.466168,39.8176164 C167.13749,39.8176164 167.955652,39.555385 168.920678,39.0309143 L169.770317,40.6987228 C168.343756,41.7476642 166.87526,42.272127 165.364785,42.272127 C164.294864,42.272127 163.424256,41.9207369 162.752934,41.2179462 C162.081611,40.5151554 161.745955,39.3456033 161.745955,37.7092547 L161.745955,27.7968081 L158.599146,27.7968081 L158.599146,25.7513826 L161.745955,25.4367017 L161.745955,21.4717231 L164.892763,20.8423614 Z M185.81904,34.0274888 L174.96255,34.090425 C174.96255,35.8106889 175.376876,37.1847815 176.20554,38.2127441 C177.034204,39.2407067 178.14082,39.7546802 179.525423,39.7546802 C179.986957,39.7546802 180.448484,39.7127232 180.910018,39.6288079 C181.371553,39.5448926 181.806857,39.44 182.215944,39.3141271 C182.625031,39.1882541 182.9974,39.0466491 183.333061,38.8893079 C183.668722,38.7319667 183.951932,38.5798725 184.182699,38.4330207 L184.812061,38.0239356 L185.913444,39.660276 C185.200164,40.2267043 184.544585,40.6724977 183.946689,40.9976696 C183.348792,41.3228414 182.646012,41.6165406 181.838327,41.8787759 C181.030642,42.1410113 180.154789,42.272127 179.210742,42.272127 C176.73524,42.272127 174.857663,41.5221452 173.577955,40.022159 C172.298246,38.5221728 171.658402,36.4715231 171.658402,33.8701484 C171.658402,32.5694611 171.847208,31.3736858 172.224827,30.2827868 C172.602446,29.1918877 173.132153,28.2530992 173.813965,27.4663932 C174.495777,26.6796871 175.308695,26.0660656 176.252742,25.6255102 C177.196789,25.1849549 178.235226,24.9646805 179.368082,24.9646805 C183.773636,24.9646805 185.97638,27.4296558 185.97638,32.3596804 L185.81904,34.0274888 Z M175.088423,31.7303187 L182.640763,31.7303187 C182.640763,30.4506102 182.368042,29.4121737 181.822593,28.6149783 C181.277143,27.8177828 180.396046,27.4191911 179.179274,27.4191911 C177.983481,27.4191911 177.028958,27.8230274 176.315678,28.6307123 C175.602398,29.4383972 175.193317,30.471589 175.088423,31.7303187 Z M208.31872,22.4472337 L201.553082,22.4472337 L201.553082,29.5275527 L208.790741,29.5275527 L208.790741,32.0449995 L201.553082,32.0449995 L201.553082,39.4399994 L204.69989,40.0693611 L204.69989,41.9574462 L195.574146,41.9574462 L195.574146,40.0693611 L198.248933,39.4399994 L198.248933,22.4472337 L195.574146,21.817872 L195.574146,20.0871273 L201.553082,19.9297869 L211.150848,19.9297869 L211.150848,25.1220209 L209.105422,25.1220209 L208.31872,22.4472337 Z M214.612337,26.2234038 C216.878051,25.3842507 218.954923,24.9646805 220.843018,24.9646805 C222.689155,24.9646805 224.105204,25.3370491 225.091209,26.0817975 C226.077214,26.8265459 226.570209,28.080012 226.570209,29.8422336 L226.570209,39.4399994 L229.087656,40.0693611 L229.087656,41.8001057 L224.210103,41.9574462 L223.549273,39.7546802 C221.870967,41.4329865 220.213664,42.272127 218.577316,42.272127 C216.940967,42.272127 215.713724,41.863046 214.89555,41.0448717 C214.077376,40.2266974 213.668295,39.0623899 213.668295,37.5519143 C213.668295,34.300196 216.080824,32.6743612 220.905954,32.6743612 L223.423401,32.6743612 L223.423401,30.1569144 C223.423401,28.2688199 222.426921,27.3247868 220.433933,27.3247868 C219.301076,27.3247868 218.367532,27.4401686 217.633273,27.6709357 L217.255656,27.7968081 L216.815103,30.1569144 L214.769678,30.1569144 L214.612337,26.2234038 Z M223.423401,34.7197867 L221.220635,34.7197867 C219.647223,34.7197867 218.530117,34.9243272 217.869284,35.3334143 C217.208451,35.7425015 216.878039,36.3771015 216.878039,37.2372335 C216.878039,38.0554078 217.07209,38.6795185 217.460199,39.1095845 C217.848307,39.5396505 218.409482,39.7546802 219.143741,39.7546802 C219.500381,39.7546802 219.862261,39.6917447 220.22939,39.5658717 C220.59652,39.4399988 220.953154,39.2826599 221.299305,39.0938505 C221.645456,38.905041 221.954889,38.7005005 222.227614,38.4802228 C222.500338,38.2599451 222.720613,38.0554046 222.888443,37.8665952 L223.423401,37.2372335 L223.423401,34.7197867 Z M236.482656,25.2793613 L236.765869,27.5135953 C237.059572,27.2408706 237.416207,26.952416 237.835784,26.648223 C238.25536,26.34403 238.716887,26.0660647 239.220379,25.8143187 C239.723871,25.5625728 240.253579,25.3580323 240.809518,25.2006911 C241.365456,25.0433499 241.916142,24.9646805 242.461592,24.9646805 C244.580454,24.9646805 246.03846,25.8667565 246.835656,27.6709357 C247.213275,27.2933168 247.653823,26.9419267 248.157315,26.6167549 C248.660807,26.2915831 249.180025,26.0031285 249.714985,25.7513826 C250.249946,25.4996366 250.774408,25.3055854 251.28839,25.169223 C251.802371,25.0328606 252.269143,24.9646805 252.688719,24.9646805 C255.940438,24.9646805 257.566273,26.8527467 257.566273,30.6289357 L257.566273,39.4399994 L259.926379,40.2267015 L259.926379,41.9574462 L252.374039,41.9574462 L252.374039,40.2267015 L254.419464,39.4399994 L254.419464,30.9436165 C254.419464,29.789781 254.220168,28.9506405 253.821571,28.4261698 C253.422973,27.9016991 252.772639,27.6394677 251.870549,27.6394677 C251.429994,27.6394677 251.005179,27.6971586 250.596092,27.8125421 C250.187005,27.9279257 249.804147,28.0800199 249.447507,28.2688293 C249.090867,28.4576388 248.776189,28.6621793 248.503464,28.882457 C248.230739,29.1027347 248.010465,29.3177645 247.842634,29.5275527 L247.339145,30.1569144 L247.339145,39.4399994 L249.384571,40.2267015 L249.384571,41.9574462 L242.146911,41.9574462 L242.146911,40.2267015 L244.192337,39.4399994 L244.192337,30.9436165 C244.192337,29.789781 243.993041,28.9506405 243.594443,28.4261698 C243.195845,27.9016991 242.545511,27.6394677 241.643422,27.6394677 C241.202866,27.6394677 240.778052,27.6971586 240.368964,27.8125421 C239.959877,27.9279257 239.577019,28.0800199 239.220379,28.2688293 C238.863739,28.4576388 238.549062,28.6621793 238.276337,28.882457 C238.003612,29.1027347 237.783338,29.3177645 237.615507,29.5275527 L237.112018,30.1569144 L237.112018,39.4399994 L239.157443,40.2267015 L239.157443,41.9574462 L231.290422,41.9574462 L231.290422,40.2267015 L233.965209,39.4399994 L233.965209,27.7968081 L231.290422,27.1674464 L231.290422,25.4367017 L236.482656,25.2793613 Z M266.219996,17.8843614 C267.58362,17.8843614 268.265421,18.6710557 268.265421,20.2444678 C268.265421,20.8948114 268.034658,21.3982958 267.573124,21.7549358 C267.111589,22.1115759 266.618594,22.2898933 266.094124,22.2898933 C265.527695,22.2898933 265.066168,22.095842 264.709528,21.7077337 C264.352888,21.3196254 264.17457,20.7794287 264.17457,20.0871273 C264.17457,19.394826 264.368622,18.8546293 264.75673,18.466521 C265.144838,18.0784127 265.632589,17.8843614 266.219996,17.8843614 Z M267.950741,25.2793613 L267.950741,39.4399994 L270.310847,40.2267015 L270.310847,41.9574462 L262.129145,41.9574462 L262.129145,40.2267015 L264.803932,39.4399994 L264.803932,27.7968081 L262.129145,27.1674464 L262.129145,25.4367017 L267.950741,25.2793613 Z M278.083464,17.727021 L278.083464,39.4399994 L281.230272,40.2267015 L281.230272,41.9574462 L272.198932,41.9574462 L272.198932,40.2267015 L274.873719,39.4399994 L274.873719,20.2444678 L272.198932,19.6151061 L272.198932,17.8843614 L278.083464,17.727021 Z M289.097293,25.2793613 L289.097293,27.1674464 L286.894527,27.4821272 L290.670698,38.4959569 L294.132187,27.6394677 L291.929421,27.1674464 L291.929421,25.4367017 L299.387357,25.2793613 L299.387357,27.1674464 L297.341932,27.4821272 L292.873464,39.9434887 C291.824522,42.6917152 291.048317,44.5168459 290.544825,45.4189355 C288.971413,48.1252043 286.915519,49.4888076 284.377081,49.5097865 L282.363123,49.352446 L282.646336,47.1496801 L284.21974,47.1496801 C285.247703,47.1496801 286.144534,46.7196206 286.910262,45.8594887 C287.675989,44.9993567 288.446949,43.7196674 289.223166,42.0203823 L283.590379,27.6394677 L281.702294,27.1674464 L281.702294,25.4367017 L289.097293,25.2793613 Z M102.271275,77.2017009 L105.890105,77.2017009 C107.967009,77.2017009 109.587599,76.4884315 110.751924,75.0618712 C111.916249,73.6353109 112.498403,71.4850133 112.498403,68.6109138 C112.498403,65.7158356 111.931983,63.5917611 110.799126,62.2386267 C109.666269,60.8854923 108.082391,60.2089352 106.047445,60.2089352 L102.271275,60.2089352 L102.271275,77.2017009 Z M96.2923389,79.7191477 L96.2923389,77.8310626 L98.9671261,77.2017009 L98.9671261,60.2089352 L96.2923389,59.5795735 L96.2923389,57.8488289 L102.271275,57.6914885 L106.204786,57.6914885 C107.757219,57.6914885 109.147045,57.9274967 110.374307,58.3995204 C111.601568,58.871544 112.640005,59.5638349 113.489647,60.476414 C114.33929,61.388993 114.989624,62.5113434 115.440668,63.843499 C115.891713,65.1756546 116.117232,66.7018414 116.117232,68.4221053 C116.117232,70.1423692 115.870735,71.6947792 115.377732,73.0793818 C114.88473,74.4639845 114.187194,75.6492705 113.285105,76.6352754 C112.383015,77.6212803 111.292132,78.3817514 110.012424,78.9167115 C108.732715,79.4516717 107.306176,79.7191477 105.732764,79.7191477 L96.2923389,79.7191477 Z M132.795317,71.7891904 L121.938828,71.8521265 C121.938828,73.5723904 122.353154,74.9464831 123.181817,75.9744456 C124.010481,77.0024082 125.117098,77.5163818 126.5017,77.5163818 C126.963234,77.5163818 127.424762,77.4744248 127.886296,77.3905094 C128.34783,77.3065941 128.783134,77.2017016 129.192221,77.0758286 C129.601309,76.9499556 129.973677,76.8083507 130.309338,76.6510095 C130.645,76.4936682 130.92821,76.341574 131.158977,76.1947222 L131.788338,75.7856371 L132.889721,77.4219775 C132.176441,77.9884059 131.520863,78.4341993 130.922966,78.7593711 C130.325069,79.084543 129.622289,79.3782421 128.814604,79.6404775 C128.00692,79.9027128 127.131067,80.0338285 126.187019,80.0338285 C123.711518,80.0338285 121.833941,79.2838467 120.554232,77.7838605 C119.274524,76.2838743 118.634679,74.2332246 118.634679,71.63185 C118.634679,70.3311626 118.823486,69.1353874 119.201105,68.0444883 C119.578723,66.9535893 120.108431,66.0148008 120.790243,65.2280947 C121.472055,64.4413887 122.284972,63.8277672 123.229019,63.3872118 C124.173067,62.9466564 125.211503,62.726382 126.34436,62.726382 C130.749914,62.726382 132.952658,65.1913573 132.952658,70.1213819 L132.795317,71.7891904 Z M122.0647,69.4920202 L129.617041,69.4920202 C129.617041,68.2123117 129.34432,67.1738753 128.79887,66.3766798 C128.253421,65.5794844 127.372323,65.1808926 126.155551,65.1808926 C124.959758,65.1808926 124.005236,65.584729 123.291956,66.3924139 C122.578675,67.2000987 122.169594,68.2332905 122.0647,69.4920202 Z M140.504998,63.0410629 L140.788211,65.2752969 C140.997999,65.1074662 141.291698,64.8767026 141.669317,64.582999 C142.046936,64.2892954 142.492729,64.0060855 143.006711,63.7333607 C143.520692,63.460636 144.087112,63.2246277 144.705987,63.0253288 C145.324863,62.8260299 145.969952,62.726382 146.641274,62.726382 C148.340559,62.726382 149.604515,63.2246217 150.433179,64.221116 C151.261842,65.2176104 151.676168,66.6074369 151.676168,68.3906372 L151.676168,77.2017009 L154.036274,77.988403 L154.036274,79.7191477 L146.483934,79.7191477 L146.483934,77.988403 L148.529359,77.2017009 L148.529359,68.7053181 C148.529359,67.5724614 148.309085,66.7385655 147.86853,66.2036054 C147.427974,65.6686452 146.756662,65.4011692 145.854572,65.4011692 C145.414017,65.4011692 144.978713,65.4588601 144.548647,65.5742437 C144.118581,65.6896272 143.719989,65.8417214 143.352859,66.0305309 C142.98573,66.2193403 142.660563,66.4238808 142.377349,66.6441585 C142.094135,66.8644362 141.858126,67.079466 141.669317,67.2892543 L141.13436,67.918616 L141.13436,77.2017009 L143.179785,77.988403 L143.179785,79.7191477 L135.312764,79.7191477 L135.312764,77.988403 L137.987551,77.2017009 L137.987551,65.5585096 L135.312764,64.9291479 L135.312764,63.1984033 L140.504998,63.0410629 Z M161.903295,58.6040629 L161.903295,63.1984033 L166.466168,63.1984033 L166.466168,65.5585096 L161.903295,65.5585096 L161.903295,75.6597648 C161.903295,76.9394733 162.427758,77.5793179 163.4767,77.5793179 C164.148022,77.5793179 164.966184,77.3170865 165.93121,76.7926158 L166.780848,78.4604243 C165.354288,79.5093657 163.885792,80.0338285 162.375317,80.0338285 C161.305396,80.0338285 160.434788,79.6824385 159.763466,78.9796477 C159.092143,78.276857 158.756487,77.1073049 158.756487,75.4709563 L158.756487,65.5585096 L155.609678,65.5585096 L155.609678,63.5130841 L158.756487,63.1984033 L158.756487,59.2334246 L161.903295,58.6040629 Z M169.770317,63.9851054 C172.03603,63.1459523 174.112903,62.726382 176.000997,62.726382 C177.847134,62.726382 179.263184,63.0987506 180.249189,63.843499 C181.235194,64.5882474 181.728189,65.8417136 181.728189,67.6039351 L181.728189,77.2017009 L184.245635,77.8310626 L184.245635,79.5618073 L179.368082,79.7191477 L178.707253,77.5163818 C177.028946,79.194688 175.371644,80.0338285 173.735295,80.0338285 C172.098947,80.0338285 170.871704,79.6247475 170.053529,78.8065732 C169.235355,77.988399 168.826274,76.8240915 168.826274,75.3136159 C168.826274,72.0618975 171.238803,70.4360627 176.063933,70.4360627 L178.58138,70.4360627 L178.58138,67.918616 C178.58138,66.0305215 177.584901,65.0864884 175.591912,65.0864884 C174.459055,65.0864884 173.525512,65.2018702 172.791253,65.4326373 L172.413636,65.5585096 L171.973082,67.918616 L169.927657,67.918616 L169.770317,63.9851054 Z M178.58138,72.4814882 L176.378614,72.4814882 C174.805202,72.4814882 173.688096,72.6860287 173.027263,73.0951159 C172.36643,73.504203 172.036019,74.1388031 172.036019,74.998935 C172.036019,75.8171093 172.23007,76.4412201 172.618178,76.871286 C173.006286,77.301352 173.567462,77.5163818 174.301721,77.5163818 C174.658361,77.5163818 175.02024,77.4534462 175.38737,77.3275733 C175.754499,77.2017003 176.111134,77.0443615 176.457285,76.855552 C176.803435,76.6667426 177.112868,76.462202 177.385593,76.2419244 C177.658318,76.0216467 177.878592,75.8171062 178.046423,75.6282967 L178.58138,74.998935 L178.58138,72.4814882 Z M191.860912,55.4887225 L191.860912,77.2017009 L195.00772,77.988403 L195.00772,79.7191477 L185.97638,79.7191477 L185.97638,77.988403 L188.651167,77.2017009 L188.651167,58.0061693 L185.97638,57.3768076 L185.97638,55.646063 L191.860912,55.4887225 Z" id="White-Family-Dental" fill="#1A2753"></path>
            <g id="Group" fill-rule="nonzero">
                <path d="M37.7617015,98.3902112 C58.5306374,98.3902112 75.3136159,81.6072328 75.3136159,60.8382969 L75.3136159,11.6781558 C64.544538,4.61531908 51.6076588,0.419574462 37.7617015,0.419574462 C23.9157443,0.419574462 10.9788651,4.61531908 0.209787231,11.6781558 L0.209787231,60.8382969 C0.209787231,81.5373037 16.9927657,98.3902112 37.7617015,98.3902112 Z" id="Shape" fill="#FFFFFF"></path>
                <path d="M72.4465237,20.2794323 C62.8662402,14.3354608 51.5377297,11.4683686 37.7617015,11.4683686 C23.9856734,11.4683686 12.6571629,14.3354608 3.07687939,20.2794323 L2.86709215,20.4192905 L2.86709215,53.4957439 C2.86709215,72.5164528 18.18156,87.4113462 37.7617015,87.4113462 C57.3418431,87.4113462 72.6563109,72.5164528 72.6563109,53.5656729 L72.6563109,20.4192905 L72.4465237,20.2794323 Z" id="Shape" fill="#1A2753"></path>
                <path d="M13.2865246,38.3211342 C12.0278012,33.7058151 11.2585814,32.7967371 8.39148923,32.6568789 L7.272624,32.6568789 L7.272624,27.7618435 L25.5241131,27.7618435 L25.5241131,32.6568789 L23.4961698,32.6568789 C21.7479429,32.6568789 20.8388649,33.2862406 20.8388649,34.4750349 C20.8388649,34.8246803 20.908794,35.454042 21.1185812,36.0134746 L27.6919145,60.0690771 L35.3141839,38.0414179 C34.4750349,34.0554605 33.2862406,32.6568789 30.4191485,32.6568789 L28.8807088,32.6568789 L28.8807088,27.7618435 L47.5517723,27.7618435 L47.5517723,32.6568789 L45.1741837,32.6568789 C43.0763114,32.6568789 42.2371625,33.0764534 42.2371625,34.3351768 C42.2371625,34.6848222 42.3770206,35.454042 42.5868079,36.1533328 L49.7195737,59.4397154 L56.1530488,37.7617015 C56.5026942,36.5729072 56.7124814,35.3141839 56.7124814,34.544964 C56.7124814,33.2163115 55.5936162,32.6568789 53.2160275,32.6568789 L51.1181552,32.6568789 L51.1181552,27.7618435 L68.5304954,27.7618435 L68.5304954,32.6568789 L67.1319139,32.6568789 C65.1039706,32.5869499 63.7053891,33.9855314 62.8662402,36.9225526 L53.1460985,70.4185805 L44.6846802,70.4185805 L38.0414179,47.5517723 L30.2792903,70.4185805 L22.3073755,70.4185805 L13.2865246,38.3211342 Z" id="Shape" fill="#FFFFFF"></path>
            </g>
        </g>
    </g>
</svg>